<svg xmlns="http://www.w3.org/2000/svg" viewBox="0 0 800 400"><rect width="800" height="400" fill="#fff3bf"/><circle cx="700" cy="300" r="100" fill="#ff922b"/><rect width="800" height="50" x="0" y="350" fill="#fcc419" opacity=".5"/><g transform="translate(100, 150)"><rect width="100" height="80" x="50" y="100" fill="#adb5bd" rx="10"/><rect width="20" height="50" x="50" y="180" fill="#adb5bd"/><rect width="20" height="50" x="130" y="180" fill="#adb5bd"/><circle cx="50" cy="110" r="50" fill="#ced4da"/><circle cx="50" cy="100" r="5" fill="#333"/><path fill="none" stroke="#ced4da" stroke-linecap="round" stroke-width="20" d="M30,140 Q50,200 80,180"/><path fill="#ced4da" d="M0,80 Q-30,110 0,140 Z"/></g><g transform="translate(450, 180)"><circle cx="100" cy="100" r="50" fill="#fab005"/><circle cx="100" cy="100" r="70" fill="none" stroke="#e67700" stroke-dasharray="10 5" stroke-width="15"/><rect width="80" height="60" x="80" y="150" fill="#fab005"/><circle cx="85" cy="90" r="5" fill="#333"/><circle cx="115" cy="90" r="5" fill="#333"/><path fill="#333" d="M100,110 L90,120 L110,120 Z"/></g></svg>