<svg xmlns="http://www.w3.org/2000/svg" viewBox="0 0 800 400"><rect width="800" height="400" fill="#f8f0fc"/><g transform="translate(150, 150)"><rect width="90" height="60" x="50" y="80" fill="#ae3ec9" rx="10"/><rect width="15" height="40" x="50" y="140" fill="#ae3ec9"/><rect width="15" height="40" x="120" y="140" fill="#ae3ec9"/><circle cx="50" cy="60" r="40" fill="#9c36b5"/><ellipse cx="20" cy="80" fill="#862e9c" rx="10" ry="30" transform="rotate(-20)"/><ellipse cx="80" cy="80" fill="#862e9c" rx="10" ry="30" transform="rotate(20)"/><circle cx="40" cy="50" r="5" fill="#fff"/><circle cx="40" cy="50" r="2" fill="#000"/><circle cx="60" cy="50" r="5" fill="#fff"/><circle cx="60" cy="50" r="2" fill="#000"/><circle cx="50" cy="70" r="8" fill="#333"/><path fill="none" stroke="#333" stroke-width="2" d="M50,70 L50,80 M40,80 Q50,90 60,80"/><path fill="none" stroke="#ae3ec9" stroke-width="5" d="M140,80 Q160,50 150,90"/></g><g transform="translate(450, 160)"><circle cx="100" cy="150" r="50" fill="#fd7e14"/><circle cx="100" cy="80" r="35" fill="#ff922b"/><polygon fill="#ff922b" points="70 60 80 30 95 50"/><polygon fill="#ff922b" points="130 60 120 30 105 50"/><circle cx="90" cy="80" r="3" fill="#333"/><circle cx="110" cy="80" r="3" fill="#333"/><polygon fill="#fa5252" points="95 90 105 90 100 100"/><path fill="none" stroke="#fd7e14" stroke-linecap="round" stroke-width="8" d="M50,150 Q20,100 50,80"/><line x1="120" x2="160" y1="90" y2="80" stroke="#333" stroke-width="1"/><line x1="120" x2="160" y1="95" y2="100" stroke="#333" stroke-width="1"/><line x1="80" x2="40" y1="90" y2="80" stroke="#333" stroke-width="1"/><line x1="80" x2="40" y1="95" y2="100" stroke="#333" stroke-width="1"/></g></svg>