<svg xmlns="http://www.w3.org/2000/svg" viewBox="0 0 800 400"><rect width="800" height="400" fill="#e9fac8"/><rect width="20" height="60" x="150" y="300" fill="#5c3a21"/><polygon fill="#2f9e44" points="100 300 220 300 160 200"/><polygon fill="#37b24d" points="110 220 210 220 160 140"/><polygon fill="#40c057" points="120 150 200 150 160 80"/><rect width="40" height="110" x="400" y="250" fill="#865439"/><path stroke="#865439" stroke-linecap="round" stroke-width="10" d="M400,250 L400,200 L350,180"/><path stroke="#865439" stroke-linecap="round" stroke-width="10" d="M400,220 L450,180"/><circle cx="350" cy="180" r="50" fill="#51cf66" opacity=".9"/><circle cx="450" cy="180" r="60" fill="#40c057" opacity=".9"/><circle cx="400" cy="120" r="60" fill="#2b8a3e" opacity=".9"/><path fill="#20c997" d="M600,360 Q630,300 660,360 Z"/><path fill="#0ca678" d="M650,360 Q680,310 710,360 Z"/><rect width="800" height="40" x="0" y="360" fill="#8ce99a"/></svg>