<svg xmlns="http://www.w3.org/2000/svg" viewBox="0 0 800 400"><rect width="800" height="400" fill="#e7f5ff"/><line x1="0" x2="800" y1="200" y2="200" stroke="#adb5bd" stroke-width="2"/><circle cx="400" cy="200" r="5" fill="#fa5252"/><path fill="#ced4da" stroke="#868e96" stroke-width="2" d="M400,200 L100,400 L700,400 Z"/><line x1="400" x2="400" y1="200" y2="400" stroke="#fff" stroke-dasharray="20 10" stroke-width="4"/><path fill="#e9ecef" d="M100,400 L0,400 L0,200 L400,200 Z"/><path fill="#e9ecef" d="M700,400 L800,400 L800,200 L400,200 Z"/><rect width="100" height="200" x="50" y="100" fill="#ff6b6b" stroke="#333" stroke-width="2"/><rect width="80" height="100" x="180" y="150" fill="#ffd43b" stroke="#333" stroke-width="2"/><rect width="20" height="20" x="70" y="120" fill="#fff"/><rect width="20" height="20" x="100" y="120" fill="#fff"/><rect width="20" height="20" x="70" y="160" fill="#fff"/><circle cx="650" cy="200" r="40" fill="#2b8a3e"/><rect width="10" height="50" x="640" y="220" fill="#5c3a21"/><circle cx="550" cy="205" r="20" fill="#2b8a3e"/><rect width="5" height="20" x="545" y="215" fill="#5c3a21"/><path fill="none" stroke="#fff" stroke-linecap="round" stroke-width="5" d="M100,50 Q120,30 140,50 Q160,30 180,50"/></svg>