<svg xmlns="http://www.w3.org/2000/svg" viewBox="0 0 800 400"><rect width="800" height="400" fill="#f3f0ff"/><line x1="0" x2="800" y1="200" y2="200" stroke="#adb5bd" stroke-dasharray="5 5" stroke-width="2"/><text x="50" y="190" fill="#868e96">Nivel de los Ojos</text><g transform="translate(200, 80)"><rect width="80" height="60" x="0" y="0" fill="#748ffc" stroke="#333" stroke-width="2"/><polygon fill="#a5d8ff" stroke="#333" stroke-width="2" points="0 0 30 -30 110 -30 80 0"/><polygon fill="#91a7ff" stroke="#333" stroke-width="2" points="80 0 110 -30 110 30 80 60"/><text x="-50" y="30" fill="#333">Pájaro</text><path fill="none" stroke="#333" stroke-width="2" d="M-20,0 Q-10,-20 0,0"/><path fill="none" stroke="#333" stroke-width="2" d="M0,0 Q10,-20 20,0"/></g><g transform="translate(500, 250)"><rect width="80" height="60" x="0" y="0" fill="#ff6b6b" stroke="#333" stroke-width="2"/><polygon fill="#ffc9c9" stroke="#333" stroke-width="2" points="0 60 30 90 110 90 80 60"/><polygon fill="#ff8787" stroke="#333" stroke-width="2" points="80 0 110 30 110 90 80 60"/><text x="-60" y="30" fill="#333">Gusano</text><path fill="none" stroke="#339af0" stroke-width="4" d="M-20,40 Q-10,30 0,40"/></g></svg>