<svg xmlns="http://www.w3.org/2000/svg" viewBox="0 0 800 400"><rect width="800" height="400" fill="#f1f3f5"/><polygon fill="#333" points="380 350 420 350 400 300"/><rect width="600" height="10" x="100" y="300" fill="#865439" transform="rotate(5 400 305)"/><rect width="80" height="80" x="150" y="220" fill="#e03131" transform="rotate(5 190 300)"/><text x="170" y="270" fill="#fff" font-family="Arial" font-size="30" transform="rotate(5 190 300)">1</text><circle cx="600" cy="270" r="20" fill="#339af0" transform="translate(0 20)"/><circle cx="650" cy="270" r="20" fill="#339af0" transform="translate(0 15)"/><circle cx="550" cy="270" r="20" fill="#339af0" transform="translate(0 25)"/><text x="590" y="280" fill="#fff" font-family="Arial" font-size="20">Muchos</text><path stroke="#333" stroke-width="5" d="M190,150 L190,200 L180,190 M190,200 L200,190"/><path stroke="#333" stroke-width="5" d="M600,150 L600,200 L590,190 M600,200 L610,190"/></svg>