<svg xmlns="http://www.w3.org/2000/svg" viewBox="0 0 800 400"><rect width="800" height="400" fill="#fff"/><path fill="#ffec99" stroke="#f08c00" stroke-width="2" d="M50,50 Q400,0 750,50 Q750,100 400,100 Q50,100 50,50"/><text x="350" y="70" fill="#e67700" font-family="Arial" font-size="20">FONDO (Cielo)</text><path fill="none" stroke="#40c057" stroke-linecap="round" stroke-width="15" d="M60,110 L200,80 L300,120 L500,80 L740,110"/><text x="350" y="100" fill="#2b8a3e" font-family="Arial" font-size="20">MEDIO</text><rect width="300" height="40" x="250" y="130" fill="#fa5252" rx="10"/><text x="320" y="155" fill="#fff" font-family="Arial" font-size="20">PRIMER PLANO</text><path fill="#ffec99" stroke="#f08c00" stroke-width="2" d="M50,180 Q400,220 750,180 Q750,230 400,230 Q50,230 50,180"/><path stroke="#333" stroke-width="3" d="M100,60 L80,200 L70,190 M80,200 L90,190"/><g transform="translate(500, 250)"><rect width="200" height="120" x="0" y="0" fill="#87ceeb" stroke="#333"/><path fill="#40c057" d="M0,80 L50,40 L100,80 L150,50 L200,80 L200,120 L0,120"/><circle cx="50" cy="110" r="20" fill="#fa5252"/></g><text x="540" y="390" fill="#333" font-family="Arial" font-size="14">¡Resultado!</text></svg>