<svg xmlns="http://www.w3.org/2000/svg" viewBox="0 0 800 400"><rect width="800" height="400" fill="#f8f9fa"/><path fill="#ff6b6b" d="M350,200 Q300,100 450,150 Q550,100 500,250 Q600,350 400,300 Q200,350 350,200" opacity=".9"/><circle cx="380" cy="200" r="15" fill="#fff"/><circle cx="380" cy="200" r="5" fill="#333"/><circle cx="440" cy="180" r="25" fill="#fff"/><circle cx="440" cy="180" r="8" fill="#333"/><path fill="none" stroke="#fff" stroke-linecap="round" stroke-width="5" d="M400,250 Q430,280 460,250"/><path fill="#339af0" d="M150,150 Q200,50 250,150 Q280,200 200,250 Q120,220 150,150" opacity=".8"/><path stroke="#339af0" stroke-linecap="round" stroke-width="5" d="M200,150 L220,100 M220,150 L250,120"/><circle cx="210" cy="180" r="20" fill="#fff"/><circle cx="210" cy="180" r="8" fill="#333"/><rect width="30" height="200" x="650" y="100" fill="#51cf66" transform="rotate(45 665 200)"/><path fill="none" stroke="#ced4da" stroke-width="3" d="M600,300 Q580,320 550,310" opacity=".5"/></svg>