<svg xmlns="http://www.w3.org/2000/svg" viewBox="0 0 800 400"><rect width="800" height="400" fill="#e7f5ff"/><path fill="none" stroke="#1c7ed6" stroke-linecap="round" stroke-width="150" d="M50,50 Q200,300 400,100 T750,300" opacity=".5"/><g transform="translate(200, 150)"><polygon fill="#fff" stroke="none" points="0 -20 6 -6 20 -6 10 4 14 20 0 10 -14 20 -10 4 -20 -6 -6 -6"/></g><g transform="translate(450, 250)"><polygon fill="#fff" stroke="none" points="0 -30 8 -8 30 -8 14 8 20 30 0 16 -20 30 -14 8 -30 -8 -8 -8"/></g><g transform="translate(600, 100)"><circle cx="0" cy="0" r="15" fill="#fff" stroke="none"/></g><rect width="120" height="30" x="100" y="300" fill="#ced4da" transform="rotate(-45 160 315)"/><polygon fill="#fff" points="100 300 100 330 80 315" transform="rotate(-45 160 315)"/><rect width="20" height="150" x="700" y="50" fill="#d0ebff" transform="rotate(30)"/><path fill="#1864ab" d="M700,200 Q720,230 740,200" transform="rotate(30)"/><circle cx="500" cy="300" r="5" fill="#1c7ed6"/><circle cx="520" cy="280" r="8" fill="#1c7ed6"/></svg>