<svg xmlns="http://www.w3.org/2000/svg" viewBox="0 0 800 400"><rect width="800" height="400" fill="#fff0f6"/><rect width="100" height="150" x="350" y="100" fill="#fab005" stroke="#fff" stroke-width="5"/><circle cx="400" cy="80" r="50" fill="#be4bdb" stroke="#fff" stroke-width="5"/><rect width="40" height="80" x="330" y="250" fill="#228be6" stroke="#fff" stroke-width="5"/><polygon fill="#fa5252" stroke="#fff" stroke-width="5" points="430 250 470 330 430 330"/><g transform="translate(150, 200) rotate(-20)"><circle cx="0" cy="0" r="20" fill="none" stroke="#868e96" stroke-width="5"/><circle cx="0" cy="50" r="20" fill="none" stroke="#868e96" stroke-width="5"/><path fill="#ced4da" d="M20,10 L100,-20 L20,40 Z"/></g><rect width="40" height="100" x="600" y="150" fill="#fff" stroke="#333" stroke-width="2"/><rect width="40" height="30" x="600" y="200" fill="#fd7e14"/><path fill="#fd7e14" d="M600,150 L640,150 L630,130 L610,130 Z"/><rect width="30" height="30" x="500" y="50" fill="#e64980" transform="rotate(15)"/><circle cx="200" cy="100" r="15" fill="#40c057"/><path fill="#15aabf" d="M700,300 L720,330 L680,330 Z" transform="rotate(-15)"/></svg>