<svg xmlns="http://www.w3.org/2000/svg" viewBox="0 0 800 400"><rect width="800" height="400" fill="#fff9db"/><rect width="300" height="300" x="250" y="50" fill="#dee2e6" stroke="#862e9c" stroke-width="10" rx="20"/><path fill="#f1f3f5" d="M260,60 L540,60 L540,340 L260,340 Z" opacity=".5"/><path stroke="#fff" stroke-width="5" d="M280,80 L320,120 M300,80 L340,120" opacity=".6"/><g transform="translate(350, 100)"><circle cx="50" cy="50" r="40" fill="#ffec99"/><path fill="#495057" d="M10,50 Q10,10 50,10 Q90,10 90,50"/><rect width="60" height="80" x="20" y="90" fill="#339af0"/></g><g transform="translate(300, 280)"><path fill="#495057" d="M50,120 Q100,20 150,120"/><rect width="80" height="100" x="60" y="120" fill="#1c7ed6"/><rect width="60" height="20" x="150" y="150" fill="#ffec99" transform="rotate(-30)"/><path stroke="#fa5252" stroke-width="5" d="M200,120 L220,100"/></g></svg>