<svg xmlns="http://www.w3.org/2000/svg" viewBox="0 0 800 400">
  <rect width="800" height="400" fill="#f8f9fa" />

  <!-- Robot (Formas Geométricas) -->
  <g transform="translate(200, 100)">
    <rect x="0" y="0" width="50" height="50" fill="#ffec99" stroke="#333" stroke-width="2"/> <!-- Cabeza -->
    <rect x="-10" y="50" width="70" height="80" fill="#fab005" stroke="#333" stroke-width="2"/> <!-- Torso Caja -->
    
    <rect x="-30" y="55" width="20" height="60" fill="#ffd43b" stroke="#333" stroke-width="2"/> <!-- Brazo -->
    <rect x="60" y="55" width="20" height="60" fill="#ffd43b" stroke="#333" stroke-width="2"/> <!-- Brazo -->
    
    <rect x="5" y="130" width="15" height="70" fill="#fcc419" stroke="#333" stroke-width="2"/> <!-- Pierna -->
    <rect x="30" y="130" width="15" height="70" fill="#fcc419" stroke="#333" stroke-width="2"/> <!-- Pierna -->
    
    <circle cx="15" cy="15" r="5" fill="#333"/>
    <circle cx="35" cy="15" r="5" fill="#333"/>
  </g>

  <!-- Flecha = -->
  <text x="350" y="200" font-family="Arial" font-size="40" fill="#868e96">=</text>

  <!-- Humano (Formas Suavizadas) -->
  <g transform="translate(500, 100)">
    <ellipse cx="25" cy="25" rx="25" ry="30" fill="#ffc9c9" /> <!-- Cabeza Ovalo -->
    <path d="M10,55 Q25,130 40,55" fill="#ff8787" /> <!-- Torso (Simplificado) -->
    
    <path d="M-10,60 Q0,90 -10,120" stroke="#ff8787" stroke-width="15" stroke-linecap="round" fill="none"/> <!-- Brazo -->
    <path d="M60,60 Q50,90 60,120" stroke="#ff8787" stroke-width="15" stroke-linecap="round" fill="none"/> <!-- Brazo -->
    
    <path d="M15,130 Q10,170 15,200" stroke="#ffc9c9" stroke-width="15" stroke-linecap="round" fill="none"/> <!-- Pierna -->
    <path d="M35,130 Q40,170 35,200" stroke="#ffc9c9" stroke-width="15" stroke-linecap="round" fill="none"/> <!-- Pierna -->

    <circle cx="15" cy="20" r="3" fill="#333"/>
    <circle cx="35" cy="20" r="3" fill="#333"/>
    <path d="M15,40 Q25,50 35,40" stroke="#333" stroke-width="2" fill="none"/>
  </g>

</svg>
