<svg xmlns="http://www.w3.org/2000/svg" viewBox="0 0 800 400"><rect width="800" height="400" fill="#f8f9fa"/><g transform="translate(200, 100)"><rect width="50" height="50" x="0" y="0" fill="#ffec99" stroke="#333" stroke-width="2"/><rect width="70" height="80" x="-10" y="50" fill="#fab005" stroke="#333" stroke-width="2"/><rect width="20" height="60" x="-30" y="55" fill="#ffd43b" stroke="#333" stroke-width="2"/><rect width="20" height="60" x="60" y="55" fill="#ffd43b" stroke="#333" stroke-width="2"/><rect width="15" height="70" x="5" y="130" fill="#fcc419" stroke="#333" stroke-width="2"/><rect width="15" height="70" x="30" y="130" fill="#fcc419" stroke="#333" stroke-width="2"/><circle cx="15" cy="15" r="5" fill="#333"/><circle cx="35" cy="15" r="5" fill="#333"/></g><text x="350" y="200" fill="#868e96" font-family="Arial" font-size="40">=</text><g transform="translate(500, 100)"><ellipse cx="25" cy="25" fill="#ffc9c9" rx="25" ry="30"/><path fill="#ff8787" d="M10,55 Q25,130 40,55"/><path fill="none" stroke="#ff8787" stroke-linecap="round" stroke-width="15" d="M-10,60 Q0,90 -10,120"/><path fill="none" stroke="#ff8787" stroke-linecap="round" stroke-width="15" d="M60,60 Q50,90 60,120"/><path fill="none" stroke="#ffc9c9" stroke-linecap="round" stroke-width="15" d="M15,130 Q10,170 15,200"/><path fill="none" stroke="#ffc9c9" stroke-linecap="round" stroke-width="15" d="M35,130 Q40,170 35,200"/><circle cx="15" cy="20" r="3" fill="#333"/><circle cx="35" cy="20" r="3" fill="#333"/><path fill="none" stroke="#333" stroke-width="2" d="M15,40 Q25,50 35,40"/></g></svg>