<svg xmlns="http://www.w3.org/2000/svg" width="400" height="300" viewBox="0 0 400 300"><style>.bg{fill:#ede7f6}.grid{stroke:#bdbdbd;stroke-width:1}.dot{fill:#42a5f5}.stripe{fill:#ffcdd2}.chevron{fill:#a5d6a7}</style><rect width="400" height="300" class="bg"/><g><line x1="0" x2="400" y1="60" y2="60" class="grid"/><line x1="0" x2="400" y1="120" y2="120" class="grid"/><line x1="0" x2="400" y1="180" y2="180" class="grid"/><line x1="0" x2="400" y1="240" y2="240" class="grid"/></g><g transform="translate(60,90)"><circle cx="0" cy="0" r="6" class="dot"/><circle cx="20" cy="0" r="6" class="dot"/><circle cx="40" cy="0" r="6" class="dot"/><circle cx="10" cy="16" r="6" class="dot"/><circle cx="30" cy="16" r="6" class="dot"/></g><g transform="translate(200,80)"><rect width="80" height="40" x="0" y="0" class="stripe"/><rect width="80" height="8" x="0" y="0" fill="#EF9A9A"/><rect width="80" height="8" x="0" y="16" fill="#EF9A9A"/><rect width="80" height="8" x="0" y="32" fill="#EF9A9A"/></g><g transform="translate(320,100)"><polygon points="0 0 20 10 40 0 20 -10" class="chevron"/><polygon points="0 30 20 40 40 30 20 20" class="chevron"/></g></svg>