<svg xmlns="http://www.w3.org/2000/svg" viewBox="0 0 800 400">
  <rect width="800" height="400" fill="#e3fafc" />

  <!-- Hoja de Papel -->
  <rect x="250" y="50" width="300" height="300" fill="#fff" stroke="#adb5bd" stroke-width="2"/>
  <rect x="280" y="80" width="240" height="2" fill="#e9ecef"/>
  <rect x="280" y="110" width="240" height="2" fill="#e9ecef"/>
  <rect x="280" y="140" width="240" height="2" fill="#e9ecef"/>

  <!-- Lápiz Gigante -->
  <g transform="translate(150, 100) rotate(-30)">
    <path d="M0,0 L100,0 L100,200 L0,200 Z" fill="#ffd43b"/> <!-- Cuerpo -->
    <path d="M0,200 L50,250 L100,200 Z" fill="#fcc419"/> <!-- Punta madera -->
    <path d="M40,240 L50,250 L60,240 Z" fill="#333"/> <!-- Mina -->
    <rect x="0" y="-30" width="100" height="30" fill="#ced4da"/> <!-- Metal -->
    <path d="M0,-30 L0,-60 L100,-60 L100,-30 Z" fill="#fa5252"/> <!-- Borrador -->
  </g>

  <!-- Goma de Borrar -->
  <g transform="translate(600, 250) rotate(10)">
    <rect x="0" y="0" width="100" height="60" fill="#fff" stroke="#adb5bd" stroke-width="2"/>
    <rect x="0" y="0" width="60" height="60" fill="#fa5252" stroke="#e03131" stroke-width="2"/>
  </g>

  <!-- Sacapuntas -->
  <g transform="translate(550, 100) rotate(-10)">
    <rect x="0" y="0" width="60" height="40" fill="#adb5bd"/>
    <circle cx="30" cy="20" r="10" fill="#333"/>
    <rect x="5" y="5" width="50" height="5" fill="#868e96"/> <!-- Cuchilla -->
  </g>

</svg>
