<svg xmlns="http://www.w3.org/2000/svg" viewBox="0 0 800 400"><rect width="800" height="400" fill="#fff5f5"/><g><path fill="none" stroke="#333" stroke-width="3" d="M0,0 Q50,-50 20,50 Q-20,100 40,80 Q80,60 0,0" transform="translate(150, 200)"/><text x="-20" y="120" font-family="Arial" font-size="20" transform="translate(150, 200)">Garabato</text></g><path stroke="#fa5252" stroke-width="4" marker-end="url(#arrow)" d="M250,200 L350,200"/><polygon fill="#fa5252" points="350 200 340 190 340 210"/><g transform="translate(500, 200)"><path fill="#ffec99" stroke="#333" stroke-width="3" d="M0,0 Q50,-50 20,50 Q-20,100 40,80 Q80,60 0,0"/><circle cx="20" cy="10" r="5" fill="#333"/><polygon fill="#e67700" points="40 20 60 10 40 30"/><line x1="20" x2="20" y1="60" y2="90" stroke="#333" stroke-width="2"/><line x1="30" x2="40" y1="65" y2="90" stroke="#333" stroke-width="2"/><text x="-10" y="120" font-family="Arial" font-size="20">¡Pájaro!</text></g></svg>