<svg xmlns="http://www.w3.org/2000/svg" viewBox="0 0 800 400"><rect width="800" height="400" fill="#e3fafc"/><rect width="300" height="300" x="250" y="50" fill="#fff" stroke="#adb5bd" stroke-width="2"/><rect width="240" height="2" x="280" y="80" fill="#e9ecef"/><rect width="240" height="2" x="280" y="110" fill="#e9ecef"/><rect width="240" height="2" x="280" y="140" fill="#e9ecef"/><g transform="translate(150, 100) rotate(-30)"><path fill="#ffd43b" d="M0,0 L100,0 L100,200 L0,200 Z"/><path fill="#fcc419" d="M0,200 L50,250 L100,200 Z"/><path fill="#333" d="M40,240 L50,250 L60,240 Z"/><rect width="100" height="30" x="0" y="-30" fill="#ced4da"/><path fill="#fa5252" d="M0,-30 L0,-60 L100,-60 L100,-30 Z"/></g><g transform="translate(600, 250) rotate(10)"><rect width="100" height="60" x="0" y="0" fill="#fff" stroke="#adb5bd" stroke-width="2"/><rect width="60" height="60" x="0" y="0" fill="#fa5252" stroke="#e03131" stroke-width="2"/></g><g transform="translate(550, 100) rotate(-10)"><rect width="60" height="40" x="0" y="0" fill="#adb5bd"/><circle cx="30" cy="20" r="10" fill="#333"/><rect width="50" height="5" x="5" y="5" fill="#868e96"/></g></svg>