<svg xmlns="http://www.w3.org/2000/svg" viewBox="0 0 800 400"><rect width="800" height="400" fill="#f4f4f4"/><rect width="800" height="100" x="0" y="300" fill="#e0e0e0"/><rect width="120" height="150" x="100" y="80" fill="#fff" stroke="#333" stroke-width="8"/><rect width="100" height="130" x="110" y="90" fill="#ffcccb"/><circle cx="160" cy="155" r="30" fill="#ff6b6b"/><rect width="200" height="200" x="300" y="50" fill="#fff" stroke="#333" stroke-width="10"/><rect width="170" height="170" x="315" y="65" fill="#cbf0ff"/><polygon fill="#4dabf7" points="400 80 340 200 460 200"/><circle cx="450" cy="100" r="20" fill="#fcc419"/><rect width="120" height="150" x="580" y="80" fill="#fff" stroke="#333" stroke-width="8"/><rect width="100" height="130" x="590" y="90" fill="#d8f5a2"/><rect width="60" height="60" x="610" y="120" fill="#69db7c" rx="10"/><path fill="none" stroke="#c92a2a" stroke-width="5" d="M50,320 Q200,380 350,320 T650,320"/><rect width="20" height="80" x="40" y="320" fill="#ffd43b"/><rect width="20" height="80" x="340" y="320" fill="#ffd43b"/><rect width="20" height="80" x="640" y="320" fill="#ffd43b"/><path fill="#fff" d="M300,0 L400,200 L500,0" opacity=".1"/></svg>