<svg xmlns="http://www.w3.org/2000/svg" viewBox="0 0 800 400"><rect width="800" height="400" fill="#fff9db"/><path fill="#fff" stroke="#333" stroke-width="3" d="M350,150 Q350,50 400,50 Q450,50 450,150 Q450,200 420,230 L420,260 L380,260 L380,230 Q350,200 350,150"/><path fill="none" stroke="#ced4da" stroke-width="3" d="M380,150 L400,100 L420,150"/><path stroke="#868e96" stroke-width="5" d="M360,280 L440,280"/><circle cx="400" cy="130" r="40" fill="#ffe066" opacity=".8"/><line x1="330" x2="300" y1="100" y2="70" stroke="#fcc419" stroke-linecap="round" stroke-width="5"/><line x1="470" x2="500" y1="100" y2="70" stroke="#fcc419" stroke-linecap="round" stroke-width="5"/><line x1="400" x2="400" y1="30" y2="10" stroke="#fcc419" stroke-linecap="round" stroke-width="5"/><rect width="100" height="120" x="150" y="150" fill="#fff" stroke="#333" stroke-width="2" transform="rotate(-15 200 210)"/><path fill="none" stroke="#fa5252" stroke-width="3" d="M170,180 Q200,160 220,200"/><rect width="100" height="120" x="550" y="150" fill="#fff" stroke="#333" stroke-width="2" transform="rotate(10 600 210)"/><rect width="30" height="30" x="570" y="180" fill="#4dabf7"/><path fill="#fab005" d="M600,320 L700,220 L720,240 L620,340 Z"/><path fill="#fcc419" d="M600,320 L580,340 L600,360 Z"/><path stroke="#333" stroke-width="5" d="M580,340 L570,350"/></svg>