<svg xmlns="http://www.w3.org/2000/svg" viewBox="0 0 800 400"><rect width="800" height="400" fill="#fff5f5"/><rect width="40" height="300" x="380" y="50" fill="#ae3ec9"/><path fill="none" stroke="#862e9c" stroke-linecap="round" stroke-width="15" d="M300,350 L400,100 L500,350"/><rect width="300" height="200" x="250" y="100" fill="#fff" stroke="#333" stroke-width="5"/><circle cx="400" cy="200" r="80" fill="#ffdeeb"/><circle cx="400" cy="200" r="60" fill="#fcc2d7"/><circle cx="400" cy="200" r="40" fill="#f06595"/><path fill="none" stroke="#fab005" stroke-width="5" d="M250,300 L550,300 L400,100 Z" opacity=".5"/><ellipse cx="650" cy="300" fill="#e9ecef" stroke="#ced4da" stroke-width="2" rx="80" ry="60"/><circle cx="620" cy="280" r="15" fill="red"/><circle cx="650" cy="270" r="15" fill="#ff0"/><circle cx="680" cy="280" r="15" fill="#00f"/><circle cx="630" cy="310" r="15" fill="#0f0"/><path stroke="#e67700" stroke-linecap="round" stroke-width="10" d="M680,320 L750,380"/><path stroke="#333" stroke-width="15" d="M670,310 L690,330"/><path stroke="#ffd43b" stroke-width="5" d="M200,100 L220,120 M220,100 L200,120"/><path stroke="#ffd43b" stroke-width="5" d="M600,80 L620,100 M620,80 L600,100"/></svg>