<svg xmlns="http://www.w3.org/2000/svg" viewBox="0 0 800 400">
  <!-- Fondo de pared de galería -->
  <rect width="800" height="400" fill="#f4f4f4" />
  <rect x="0" y="300" width="800" height="100" fill="#e0e0e0" /> <!-- Suelo -->

  <!-- Cuadro 1 (Izquierda) -->
  <rect x="100" y="80" width="120" height="150" fill="#fff" stroke="#333" stroke-width="8"/>
  <rect x="110" y="90" width="100" height="130" fill="#ffcccb" />
  <circle cx="160" cy="155" r="30" fill="#ff6b6b" />

  <!-- Cuadro 2 (Centro - Principal) -->
  <rect x="300" y="50" width="200" height="200" fill="#fff" stroke="#333" stroke-width="10"/>
  <rect x="315" y="65" width="170" height="170" fill="#cbf0ff" />
  <polygon points="400,80 340,200 460,200" fill="#4dabf7" />
  <circle cx="450" cy="100" r="20" fill="#fcc419" />

  <!-- Cuadro 3 (Derecha) -->
  <rect x="580" y="80" width="120" height="150" fill="#fff" stroke="#333" stroke-width="8"/>
  <rect x="590" y="90" width="100" height="130" fill="#d8f5a2" />
  <rect x="610" y="120" width="60" height="60" fill="#69db7c" rx="10"/>

  <!-- Cuerda de museo -->
  <path d="M50,320 Q200,380 350,320 T650,320" fill="none" stroke="#c92a2a" stroke-width="5"/>
  <rect x="40" y="320" width="20" height="80" fill="#ffd43b" />
  <rect x="340" y="320" width="20" height="80" fill="#ffd43b" />
  <rect x="640" y="320" width="20" height="80" fill="#ffd43b" />

  <!-- Luz cenital -->
  <path d="M300,0 L400,200 L500,0" fill="white" opacity="0.1"/>
</svg>
