<svg xmlns="http://www.w3.org/2000/svg" viewBox="0 0 800 400"><rect width="800" height="400" fill="#fff5f5"/><rect width="800" height="100" x="0" y="300" fill="#e9ecef"/><g transform="translate(200, 200)"><circle cx="0" cy="0" r="40" fill="#d9480f"/><circle cx="-30" cy="-30" r="15" fill="#d9480f"/><circle cx="30" cy="-30" r="15" fill="#d9480f"/><ellipse cx="0" cy="60" fill="#d9480f" rx="50" ry="60"/><circle cx="-40" cy="40" r="20" fill="#d9480f"/><circle cx="40" cy="40" r="20" fill="#d9480f"/><circle cx="0" cy="0" r="10" fill="#fff"/><circle cx="0" cy="-5" r="3" fill="#333"/><circle cx="-15" cy="-10" r="3" fill="#333"/><circle cx="15" cy="-10" r="3" fill="#333"/></g><path stroke="#333" stroke-dasharray="10 5" stroke-width="2" marker-end="url(#arrow)" d="M300,200 L500,200"/><polygon fill="#333" points="500 200 490 190 490 210"/><g transform="translate(550, 150)"><rect width="150" height="200" x="0" y="0" fill="#fff" stroke="#868e96" stroke-width="2"/><rect width="150" height="20" x="0" y="-10" fill="#adb5bd"/><g fill="none" stroke="#333" stroke-width="2"><circle cx="75" cy="60" r="20"/><ellipse cx="75" cy="110" rx="30" ry="40"/><path stroke="#fa5252" stroke-width="5" d="M60,200 L120,200" opacity=".5"/></g></g><text x="350" y="100" fill="#333" font-family="Arial" font-size="24">¡Dibuja lo que ves!</text></svg>