<svg xmlns="http://www.w3.org/2000/svg" viewBox="0 0 800 400"><rect width="800" height="400" fill="#f3f0ff"/><g transform="translate(400, 200)"><circle cx="0" cy="0" r="80" fill="#b197fc" opacity=".3"/><circle cx="50" cy="20" r="70" fill="#b197fc" opacity=".4"/><circle cx="-50" cy="20" r="70" fill="#b197fc" opacity=".4"/><circle cx="20" cy="-40" r="60" fill="#b197fc" opacity=".3"/><path fill="#9775fa" d="M-60,20 Q-80,0 -40,-30 Q0,-60 40,-30 Q80,0 60,20 Q40,50 0,50 Q-40,50 -60,20" opacity=".8"/></g><g transform="translate(600, 300) rotate(-30)"><rect width="40" height="100" x="0" y="0" fill="#ffec99" rx="20"/><path fill="#ffc9c9" d="M0,0 Q20,-10 40,0"/><path fill="none" stroke="#ae3ec9" stroke-width="2" d="M5,10 Q20,5 35,10"/></g><text x="50" y="350" fill="#845ef7" font-family="Arial" font-size="30" font-weight="bold">¡Suavecito!</text></svg>