<svg xmlns="http://www.w3.org/2000/svg" viewBox="0 0 800 400"><rect width="800" height="400" fill="#343a40"/><circle cx="100" cy="50" r="40" fill="#fff" stroke="#ffd43b" stroke-width="5"/><line x1="100" x2="100" y1="50" y2="100" stroke="#ffd43b" stroke-width="2"/><line x1="100" x2="150" y1="50" y2="50" stroke="#ffd43b" stroke-width="2"/><line x1="100" x2="50" y1="50" y2="50" stroke="#ffd43b" stroke-width="2"/><line x1="100" x2="100" y1="50" y2="0" stroke="#ffd43b" stroke-width="2"/><line x1="100" x2="135" y1="50" y2="85" stroke="#ffd43b" stroke-width="2"/><path stroke="#ffd43b" stroke-width="10" marker-end="url(#arrow)" d="M150,100 L300,200"/><polygon fill="#ffd43b" points="300 200 280 190 280 210"/><g transform="translate(400, 200)"><rect width="150" height="150" x="0" y="0" fill="#868e96"/><polygon fill="#ced4da" points="0 0 50 -50 200 -50 150 0"/><polygon fill="#adb5bd" points="150 0 200 -50 200 100 150 150"/><path fill="#fff" d="M0,0 L0,150 L-5,150 L-5,0" opacity=".1"/></g><text x="50" y="350" fill="#fff" font-family="Arial" font-size="24">¡La luz viaje en línea recta!</text></svg>