<svg xmlns="http://www.w3.org/2000/svg" viewBox="0 0 800 400"><rect width="800" height="400" fill="#fff4e6"/><path fill="#40c057" stroke="#2b8a3e" stroke-width="3" d="M200,250 Q300,350 500,300 Q600,250 550,150"/><path fill="none" stroke="#40c057" stroke-linecap="round" stroke-width="20" d="M200,250 Q100,250 50,300"/><polygon fill="#fa5252" points="40 300 20 280 60 280"/><path fill="#be4bdb" d="M450,250 Q500,100 650,150 Q600,200 550,200 Q500,200 450,250" opacity=".8"/><line x1="450" x2="500" y1="250" y2="150" stroke="#862e9c" stroke-width="3"/><path fill="#40c057" d="M550,150 Q600,100 650,150 L650,180 L580,200 Z"/><circle cx="600" cy="140" r="5" fill="#fff"/><circle cx="600" cy="140" r="2" fill="#000"/><path fill="#ff922b" d="M650,180 Q700,180 750,150 Q720,200 700,220" opacity=".8"/><text x="50" y="50" fill="#868e96" font-family="Arial" font-size="20">Reptil + Ave + Fuego = Dragón</text></svg>