<svg xmlns="http://www.w3.org/2000/svg" viewBox="0 0 800 400"><rect width="800" height="400" fill="#101113"/><circle cx="700" cy="80" r="40" fill="#fa5252" opacity=".8"/><circle cx="650" cy="60" r="20" fill="#be4bdb" opacity=".6"/><rect width="80" height="250" x="100" y="150" fill="#343a40"/><rect width="40" height="240" x="120" y="160" fill="#f03e3e" opacity=".2"/><rect width="100" height="350" x="300" y="50" fill="#212529"/><circle cx="350" cy="50" r="50" fill="#212529"/><rect width="80" height="10" x="310" y="100" fill="#4dabf7"/><rect width="80" height="10" x="310" y="150" fill="#4dabf7"/><rect width="60" height="300" x="550" y="100" fill="#343a40"/><polygon fill="#343a40" points="550 100 580 50 610 100"/><path fill="none" stroke="#e64980" stroke-width="8" d="M0,350 Q400,250 800,300" opacity=".8"/><path fill="none" stroke="#228be6" stroke-width="4" d="M0,360 Q400,260 800,310" opacity=".8"/><rect width="40" height="10" x="200" y="280" fill="#ffd43b" rx="5"/><rect width="30" height="8" x="500" y="270" fill="#51cf66" rx="4"/></svg>