<svg xmlns="http://www.w3.org/2000/svg" width="400" height="300" viewBox="0 0 400 300"><style>.child-face{fill:#fde3a7}.hair{fill:#4a3728}.shirt{fill:#5d9cec}.hand{fill:#fde3a7;stroke:#4a3728;stroke-width:2}.pencil{fill:#f4d03f}.pencil-tip{fill:#2c3e50}.perfect-circle{fill:none;stroke:#4caf50;stroke-width:3;stroke-dasharray:5;animation:draw 3s linear infinite}.wobbly-circle{fill:none;stroke:#e74c3c;stroke-width:2.5}.eye{fill:#2c3e50}.mouth{fill:none;stroke:#2c3e50;stroke-width:2}</style><rect width="400" height="300" fill="#E1F5FE"/><g transform="translate(80, 150)"><circle cx="50" cy="0" r="40" class="child-face"/><path d="M 20 -40 Q 50 -60, 80 -40 L 90 -30 Q 50 -50, 10 -30 Z" class="hair"/><circle cx="35" cy="-5" r="4" class="eye"/><circle cx="65" cy="-5" r="4" class="eye"/><path d="M 40 15 Q 50 25, 60 15" class="mouth"/><rect width="60" height="80" x="20" y="40" class="shirt" rx="10"/></g><g transform="translate(200, 120)"><path d="M0,0 C10,-10 30,-10 40,0 L35,30 C25,40 15,40 5,30 Z" class="hand" transform="rotate(20)"/><polygon points="30 5 35 0 55 20 50 25" class="pencil"/><polygon points="55 20 58 17 63 22 60 25" class="pencil-tip"/></g><g transform="translate(250, 150)"><circle cx="0" cy="0" r="45" class="perfect-circle"/><path d="M 80,5 C 95,-20 130,-15 140,10 C 150,35 125,55 100,50 C 75,45 65,30 80,5 Z" class="wobbly-circle"/><path stroke-width="2" d="M -50, 60 C -70, 40 -80, 70 -60, 90 C -40, 110 -20, 100 -30, 80 C -40, 60 -50, 60 Z" class="wobbly-circle"/></g></svg>