<svg xmlns="http://www.w3.org/2000/svg" width="400" height="300" viewBox="0 0 400 300"><style>.bg{fill:#d4e6f1}.rect-friend{stroke-width:3}.square-friend{fill:#f5b041;stroke:#af640c;stroke-width:3}.rect-friend{fill:#58d68d;stroke:#1e8449}.eye{fill:#fff}.pupil{fill:#333}.mouth{fill:none;stroke-linecap:round}.arm,.leg,.mouth{stroke:#333;stroke-width:2}.hat{fill:#e74c3c}.bowtie{fill:#8e44ad}</style><rect width="400" height="300" class="bg"/><g transform="translate(80, 100)"><rect width="100" height="100" x="0" y="0" class="square-friend" rx="10"/><circle cx="30" cy="35" r="10" class="eye"/><circle cx="70" cy="35" r="10" class="eye"/><circle cx="33" cy="35" r="4" class="pupil"/><circle cx="73" cy="35" r="4" class="pupil"/><path d="M 35 65 Q 50 80 65 65" class="mouth"/><path d="M 20 0 Q 50 -30 80 0 Z" class="hat"/><rect width="80" height="10" x="10" y="-5" class="hat"/><line x1="-20" x2="0" y1="50" y2="60" class="arm"/><line x1="100" x2="120" y1="60" y2="50" class="arm"/><line x1="30" x2="20" y1="100" y2="130" class="leg"/><line x1="70" x2="80" y1="100" y2="130" class="leg"/></g><g transform="translate(220, 80)"><rect width="80" height="140" x="0" y="0" class="rect-friend" rx="10"/><circle cx="25" cy="40" r="10" class="eye"/><circle cx="55" cy="40" r="10" class="eye"/><circle cx="22" cy="42" r="4" class="pupil" transform="rotate(-15 22 42)"/><circle cx="52" cy="42" r="4" class="pupil" transform="rotate(-15 52 42)"/><path d="M 25 70 C 35 60, 45 60, 55 70" class="mouth"/><polygon points="40 85 30 80 30 90" class="bowtie"/><polygon points="40 85 50 80 50 90" class="bowtie"/><line x1="-15" x2="0" y1="70" y2="80" class="arm"/><line x1="80" x2="95" y1="80" y2="70" class="arm"/><line x1="25" x2="15" y1="140" y2="170" class="leg"/><line x1="55" x2="65" y1="140" y2="170" class="leg"/></g></svg>