<svg xmlns="http://www.w3.org/2000/svg" viewBox="0 0 800 400"><rect width="800" height="400" fill="#fff9db"/><g transform="translate(200, 200)"><circle cx="0" cy="50" r="60" fill="#fab005"/><circle cx="0" cy="-30" r="40" fill="#ffd43b"/><polygon fill="#ffd43b" points="-30 -60 -10 -60 -35 -90"/><polygon fill="#ffd43b" points="30 -60 10 -60 35 -90"/><circle cx="-15" cy="-40" r="5" fill="#333"/><circle cx="15" cy="-40" r="5" fill="#333"/><polygon fill="#e67700" points="-5 -30 5 -30 0 -20"/><path fill="none" stroke="#fab005" stroke-linecap="round" stroke-width="10" d="M0,50 Q20,20 60,30"/><text x="-40" y="140" font-family="Arial" font-size="20">Gato (Círculos)</text></g><g transform="translate(600, 200)"><ellipse cx="0" cy="50" fill="#ffc9c9" rx="70" ry="50"/><circle cx="-50" cy="20" r="35" fill="#ffc9c9"/><polygon fill="#ffc9c9" points="-70 0 -80 -20 -50 -10"/><polygon fill="#ffc9c9" points="-30 0 -20 -20 -50 -10"/><circle cx="-60" cy="15" r="3" fill="#333"/><circle cx="-40" cy="15" r="3" fill="#333"/><ellipse cx="-50" cy="25" fill="#e64980" rx="10" ry="8"/><rect width="15" height="40" x="-30" y="80" fill="#ffc9c9"/><rect width="15" height="40" x="20" y="80" fill="#ffc9c9"/><text x="-40" y="140" font-family="Arial" font-size="20">Cerdito (Óvalos)</text></g></svg>