<svg xmlns="http://www.w3.org/2000/svg" viewBox="0 0 800 400"><rect width="800" height="400" fill="#fff9db"/><g transform="translate(100, 150)"><polygon fill="#ced4da" stroke="#343a40" stroke-width="4" points="0 200 100 50 200 200"/><polygon fill="#868e96" stroke="#343a40" stroke-width="4" points="150 200 250 80 350 200"/><text x="50" y="250" font-family="Arial" font-size="20">Fuertes</text></g><g transform="translate(500, 200)"><polygon fill="#fa5252" points="0 0 50 -25 50 25"/><polygon fill="#fa5252" points="60 -50 110 -75 110 -25"/><polygon fill="#fa5252" points="60 50 110 25 110 75"/><text x="-50" y="0" font-family="Arial" font-size="20">¡Peligro!</text></g><g transform="translate(600, 100) rotate(30)"><path fill="#ffec99" stroke="#fcc419" stroke-width="2" d="M0,0 L-50,100 L50,100 Z"/><circle cx="0" cy="50" r="5" fill="#e03131"/><circle cx="-10" cy="80" r="5" fill="#e03131"/><circle cx="20" cy="30" r="5" fill="#e03131"/><path fill="#e03131" d="M-50,100 Q0,110 50,100" opacity=".5"/></g></svg>