<svg xmlns="http://www.w3.org/2000/svg" viewBox="0 0 800 400"><rect width="800" height="400" fill="#e3fafc"/><g transform="translate(400, 200)"><rect width="120" height="140" x="-60" y="-40" fill="#adb5bd" stroke="#343a40" stroke-width="4"/><rect width="80" height="60" x="-40" y="-20" fill="#ced4da"/><circle cx="-20" cy="10" r="10" fill="#fa5252"/><circle cx="20" cy="10" r="10" fill="#40c057"/><rect width="80" height="80" x="-40" y="-120" fill="#adb5bd" stroke="#343a40" stroke-width="4"/><line x1="0" x2="0" y1="-40" y2="-120" stroke="#343a40" stroke-width="2"/><circle cx="-20" cy="-90" r="10" fill="#fff"/><circle cx="-20" cy="-90" r="3" fill="#333"/><circle cx="20" cy="-90" r="10" fill="#fff"/><circle cx="20" cy="-90" r="3" fill="#333"/><line x1="0" x2="0" y1="-120" y2="-150" stroke="#343a40" stroke-width="4"/><circle cx="0" cy="-150" r="8" fill="#fa5252"/><path fill="none" stroke="#adb5bd" stroke-linecap="round" stroke-width="20" d="M-60,0 L-100,20 L-120,60"/><path fill="none" stroke="#adb5bd" stroke-linecap="round" stroke-width="20" d="M60,0 L100, -20 L120,-60"/><path stroke="#343a40" stroke-width="4" d="M-120,60 L-130,80 M-120,60 L-110,80"/><path stroke="#343a40" stroke-width="4" d="M120,-60 L130,-40 M120,-60 L110,-40"/></g><text x="500" y="350" fill="#343a40" font-family="Arial" font-size="24">¡Hola Humano!</text></svg>