<svg xmlns="http://www.w3.org/2000/svg" viewBox="0 0 800 400"><rect width="800" height="400" fill="#fff5f5"/><circle cx="700" cy="80" r="50" fill="#ffe066" stroke="#fcc419" stroke-width="5"/><g transform="translate(700, 80)"><line x1="0" x2="0" y1="-70" y2="-90" stroke="#fcc419" stroke-width="5"/><line x1="0" x2="0" y1="70" y2="90" stroke="#fcc419" stroke-width="5"/><line x1="-70" x2="-90" y1="0" y2="0" stroke="#fcc419" stroke-width="5"/><line x1="70" x2="90" y1="0" y2="0" stroke="#fcc419" stroke-width="5"/><line x1="50" x2="65" y1="-50" y2="-65" stroke="#fcc419" stroke-width="5"/><line x1="-50" x2="-65" y1="50" y2="65" stroke="#fcc419" stroke-width="5"/><line x1="50" x2="65" y1="50" y2="65" stroke="#fcc419" stroke-width="5"/><line x1="-50" x2="-65" y1="-50" y2="-65" stroke="#fcc419" stroke-width="5"/></g><path fill="#ff6b6b" d="M100,350 L250,150 L400,350"/><path fill="#fff" d="M250,150 L230,180 L250,200 L270,180 Z"/><path fill="none" stroke="#adb5bd" stroke-dasharray="5 5" stroke-width="2" d="M250,150 Q250,100 280,80"/><path fill="#fa5252" d="M500,350 L650,200 L800,350"/><rect width="800" height="50" x="0" y="350" fill="#e03131"/><path fill="none" stroke="#fab005" stroke-width="10" d="M0,360 Q200,380 400,360 Q600,340 800,360"/><g><path fill="#fcc419" stroke="#e67700" stroke-width="2" d="M0,30 Q10,0 20,30 Q30,0 40,30" transform="translate(450, 320)"/><path fill="#ff922b" d="M10,30 Q20,10 30,30" transform="translate(450, 320)"/></g><text x="50" y="80" fill="#c92a2a" font-family="Arial" font-size="30" font-weight="bold">PLANETA FUEGO</text><text x="50" y="110" fill="#c92a2a" font-family="Arial" font-size="20">Rojo, Naranja, Amarillo</text></svg>