<svg xmlns="http://www.w3.org/2000/svg" viewBox="0 0 800 400"><rect width="800" height="400" fill="#fff"/><g><path fill="#fa5252" d="M0,0 L0,-150 A150,150 0 0,1 130,-75 Z" transform="translate(400, 200) rotate(-90)"/><path fill="#228be6" d="M0,0 L130,75 A150,150 0 0,1 0,150 Z" transform="translate(400, 200) rotate(-90)"/><path fill="#ffd43b" d="M0,0 L-130,-75 A150,150 0 0,1 0,-150 Z" transform="translate(400, 200) rotate(-90)"/></g><g transform="translate(400, 200)"><path fill="#fa5252" d="M0,0 L-75,-130 A150,150 0 0,1 75,-130 Z"/><path fill="#fd7e14" d="M0,0 L75,-130 A150,150 0 0,1 150,0 Z"/><path fill="#fcc419" d="M0,0 L150,0 A150,150 0 0,1 75,130 Z"/><path fill="#40c057" d="M0,0 L75,130 A150,150 0 0,1 -75,130 Z"/><path fill="#228be6" d="M0,0 L-75,130 A150,150 0 0,1 -150,0 Z"/><path fill="#be4bdb" d="M0,0 L-150,0 A150,150 0 0,1 -75,-130 Z"/><circle cx="0" cy="0" r="20" fill="#fff"/></g><line x1="400" x2="400" y1="70" y2="330" stroke="#333" stroke-dasharray="5 5" stroke-width="2"/><text x="600" y="200" fill="#495057" font-family="Arial" font-size="20">¡Colores Amigos!</text></svg>